<svg width="100" height="101" viewBox="0 0 100 101" fill="none" xmlns="http://www.w3.org/2000/svg">
<path fill-rule="evenodd" clip-rule="evenodd" d="M50 0.175293C22.3864 0.175293 0 22.6678 0 50.4123C0 78.1568 22.3864 100.649 50 100.649C77.6136 100.649 100 78.1568 100 50.4123C100 22.6678 77.6136 0.175293 50 0.175293ZM71.6727 41.9177C72.0718 41.4594 72.3756 40.9255 72.5663 40.3474C72.757 39.7694 72.8307 39.1588 72.7831 38.5517C72.7354 37.9446 72.5674 37.3533 72.289 36.8124C72.0105 36.2715 71.6272 35.792 71.1616 35.4021C70.696 35.0123 70.1575 34.7199 69.5777 34.5423C68.998 34.3646 68.3887 34.3052 67.7858 34.3676C67.1829 34.4301 66.5985 34.613 66.067 34.9057C65.5355 35.1984 65.0676 35.5949 64.6909 36.0719L45.1455 59.6331L35.0318 49.4669C34.1745 48.635 33.0263 48.1747 31.8345 48.1851C30.6427 48.1955 29.5027 48.6758 28.6599 49.5226C27.8172 50.3693 27.3391 51.5148 27.3288 52.7122C27.3184 53.9097 27.7766 55.0633 28.6045 55.9247L42.2409 69.6257C42.6875 70.0742 43.2222 70.4242 43.811 70.6535C44.3997 70.8829 45.0295 70.9864 45.6603 70.9577C46.2911 70.9289 46.909 70.7683 47.4746 70.4863C48.0402 70.2043 48.5411 69.807 48.9455 69.3197L71.6727 41.9177Z" fill="#7AFF80"/>
</svg>
