<svg width="29" height="29" viewBox="0 0 29 29" fill="none" xmlns="http://www.w3.org/2000/svg">
<path fill-rule="evenodd" clip-rule="evenodd" d="M14.5 1.20837C7.15942 1.20837 1.20837 7.15942 1.20837 14.5C1.20837 21.8407 7.15942 27.7917 14.5 27.7917C21.8407 27.7917 27.7917 21.8407 27.7917 14.5C27.7917 7.15942 21.8407 1.20837 14.5 1.20837ZM20.2614 12.2525C20.3675 12.1313 20.4482 11.99 20.4989 11.8371C20.5496 11.6841 20.5692 11.5226 20.5565 11.362C20.5439 11.2014 20.4992 11.0449 20.4252 10.9018C20.3512 10.7587 20.2493 10.6318 20.1255 10.5287C20.0017 10.4255 19.8586 10.3482 19.7045 10.3012C19.5503 10.2542 19.3884 10.2384 19.2281 10.255C19.0678 10.2715 18.9125 10.3199 18.7712 10.3973C18.6299 10.4747 18.5055 10.5797 18.4054 10.7059L13.2095 16.9397L10.521 14.2499C10.2931 14.0298 9.98788 13.908 9.67106 13.9108C9.35423 13.9135 9.05117 14.0406 8.82713 14.2646C8.6031 14.4887 8.47602 14.7917 8.47327 15.1086C8.47051 15.4254 8.59231 15.7306 8.81242 15.9585L12.4374 19.5835C12.5561 19.7022 12.6983 19.7948 12.8548 19.8554C13.0113 19.9161 13.1787 19.9435 13.3464 19.9359C13.5141 19.9283 13.6783 19.8858 13.8287 19.8112C13.9791 19.7366 14.1122 19.6315 14.2197 19.5025L20.2614 12.2525Z" fill="#5CB860"/>
</svg>
