<svg width="32" height="164" viewBox="0 0 32 164" fill="none" xmlns="http://www.w3.org/2000/svg">
<line x1="16" y1="18" x2="16" y2="145" stroke="#57585C" stroke-width="2"/>
<circle cx="16" cy="16" r="16" fill="#57585C"/>
<path d="M17.1868 22V10.1355H17.0645L11.8983 12.0016V13.9735L14.897 12.8979V22H17.1868Z" fill="white"/>
<circle cx="16" cy="148" r="16" fill="#57585C"/>
<path d="M19.3951 154V152.183H14.1881L16.4208 149.82C16.8065 149.423 17.1569 149.046 17.472 148.687C17.7871 148.323 18.0587 147.967 18.2869 147.62C18.5096 147.272 18.6807 146.922 18.8002 146.568C18.9252 146.21 18.9876 145.835 18.9876 145.444C18.9876 144.928 18.9062 144.458 18.7432 144.034C18.5802 143.605 18.3439 143.238 18.0342 142.934C17.7192 142.63 17.328 142.394 16.8608 142.225C16.3991 142.057 15.8667 141.973 15.2637 141.973C14.6335 141.973 14.0577 142.076 13.5362 142.282C13.0201 142.483 12.5801 142.76 12.2161 143.113C11.8467 143.466 11.5615 143.879 11.3605 144.352C11.1595 144.819 11.059 145.316 11.059 145.843H13.3324C13.3324 145.523 13.3732 145.237 13.4547 144.988C13.5362 144.738 13.6557 144.529 13.8132 144.36C13.9653 144.197 14.1555 144.075 14.3836 143.993C14.6172 143.906 14.8861 143.863 15.1903 143.863C15.4239 143.863 15.6358 143.901 15.8259 143.977C16.0215 144.053 16.1899 144.162 16.3312 144.303C16.467 144.45 16.5729 144.626 16.649 144.833C16.725 145.039 16.763 145.275 16.763 145.542C16.763 145.721 16.7332 145.906 16.6734 146.096C16.6191 146.286 16.5295 146.49 16.4045 146.707C16.2741 146.93 16.1057 147.174 15.8993 147.44C15.6929 147.706 15.4402 148.003 15.1415 148.329L11.3034 152.452V154H19.3951Z" fill="white"/>
</svg>
